<?xml version="1.0" encoding="UTF-8"?>
<svg version="1.1" xmlns="http://www.w3.org/2000/svg" width="800" height="800">
<path d="M0 0 C264 0 528 0 800 0 C800 264 800 528 800 800 C536 800 272 800 0 800 C0 536 0 272 0 0 Z " fill="#F6F2E2" transform="translate(0,0)"/>
<path d="M0 0 C2.87311194 0.00008053 5.74606192 -0.00675748 8.61914062 -0.02050781 C27.81024551 -0.11094984 46.79380555 0.53629222 65.93399048 1.9604187 C70.85994908 2.29731336 75.78848595 2.5017111 80.72216797 2.68530273 C89.40265691 3.03134275 98.07212294 3.50397672 106.74194336 4.05224609 C108.13265915 4.14014359 109.52344655 4.22691619 110.91430664 4.3125 C112.86351337 4.43307192 114.81238088 4.55908963 116.76123047 4.68530273 C117.8873877 4.75749023 119.01354492 4.82967773 120.17382812 4.90405273 C122.92634689 5.1580093 125.52054138 5.62096597 128.22216797 6.18530273 C128.33644099 38.63618131 128.42482435 71.08700148 128.47749462 103.5380356 C128.48374751 107.37659437 128.49021918 111.21515275 128.49682617 115.05371094 C128.49813772 115.81783966 128.49944928 116.58196838 128.50080057 117.36925251 C128.5225066 129.712129 128.56190135 142.05488804 128.60793195 154.39769506 C128.65483081 167.07989899 128.68249161 179.76204177 128.69261044 192.44432884 C128.69944192 200.25844773 128.7209504 208.07223453 128.7617503 215.8862511 C128.791518 221.89666729 128.79440852 227.90680298 128.78770638 233.91730118 C128.78907338 236.36933106 128.79890413 238.82137441 128.81819534 241.27332878 C128.95241421 259.22485232 127.32204457 274.53432896 118.09716797 290.31030273 C117.38548462 291.56157959 117.38548462 291.56157959 116.65942383 292.83813477 C112.0794314 300.729047 106.92670653 308.07320292 101.22216797 315.18530273 C100.77856934 315.74314453 100.3349707 316.30098633 99.87792969 316.87573242 C87.95177568 331.71966605 74.25489256 345.50621249 59.22216797 357.18530273 C57.38564623 358.74405393 55.55251777 360.30680882 53.72216797 361.87280273 C29.16998549 382.3329548 0.85597515 401.86839914 -27.77783203 416.18530273 C-26.54202393 412.24045716 -25.05482357 408.50309754 -23.36645508 404.73168945 C-20.10623905 397.3279694 -17.74803963 389.95171843 -15.96533203 382.06030273 C-15.67372192 380.77542969 -15.67372192 380.77542969 -15.3762207 379.46459961 C-12.67916202 366.84117945 -11.43980088 354.43339598 -11.51708984 341.55883789 C-11.52789769 339.42232375 -11.51706821 337.28663693 -11.50439453 335.15014648 C-11.47660588 310.2958008 -20.94377554 290.93894393 -36.53738523 272.05440766 C-39.43334591 269.63843672 -40.99737919 269.68549594 -44.73826218 269.68587399 C-45.96599783 269.67627649 -47.19373348 269.666679 -48.45867324 269.65679067 C-49.82326105 269.66634663 -51.18784637 269.67626555 -52.5524292 269.68650818 C-54.00053829 269.68278226 -55.44864374 269.67729383 -56.8967402 269.67019135 C-60.88170302 269.65571124 -64.86627607 269.66612851 -68.85122514 269.6804744 C-73.14736401 269.69157046 -77.44344386 269.67960142 -81.73957825 269.67028809 C-89.18837834 269.65718166 -96.63706626 269.6583734 -104.08586884 269.66888237 C-114.87304463 269.6838171 -125.66008878 269.67390969 -136.44725707 269.65736318 C-153.97102647 269.63088186 -171.49476638 269.62004381 -189.01855469 269.62109375 C-190.59239675 269.62118123 -190.59239675 269.62118123 -192.1980336 269.62127049 C-196.44836475 269.62153629 -200.6986959 269.62185355 -204.94902705 269.62223374 C-216.62357052 269.62319833 -228.29811308 269.62187471 -239.97265625 269.61914062 C-241.53912439 269.61878079 -241.53912439 269.61878079 -243.13723835 269.61841368 C-260.58032813 269.61399954 -278.02339061 269.59773294 -295.46646428 269.57391983 C-306.21810076 269.55987928 -316.96963315 269.55694227 -327.72127315 269.56854273 C-335.1001342 269.57589305 -342.47894302 269.57276709 -349.85779908 269.56158429 C-354.10887045 269.55553994 -358.3597954 269.55434417 -362.61085701 269.56646156 C-366.5135492 269.5775182 -370.41598348 269.57448025 -374.31866542 269.5609181 C-375.7198985 269.55845095 -377.12115227 269.56090767 -378.52236304 269.56919198 C-392.03546553 269.64382974 -405.23829862 267.88962016 -417.77783203 262.62280273 C-418.6139502 262.27693115 -419.45006836 261.93105957 -420.31152344 261.57470703 C-447.61600725 249.87463967 -466.43814672 229.0807964 -478.12158203 202.07983398 C-482.3608813 190.95167341 -484.22443271 180.41507725 -484.1184082 168.5222168 C-484.11906532 166.55912064 -484.11906532 166.55912064 -484.11973572 164.55636597 C-484.12058782 161.00747537 -484.1030914 157.45889607 -484.08201385 153.9100771 C-484.06311419 150.18654825 -484.06148623 146.46301033 -484.05793762 142.73944092 C-484.04865583 135.70616147 -484.02409513 128.67302383 -483.99388915 121.63980651 C-483.96022389 113.62519053 -483.94382882 105.61056737 -483.92880285 97.59589815 C-483.89754156 81.125617 -483.84485733 64.65547803 -483.77783203 48.18530273 C-478.92756803 48.10167749 -474.56075307 48.29895811 -469.77783203 49.18530273 C-449.73771195 51.196328 -429.63627868 51.52339891 -409.5129776 51.44325256 C-407.35986841 51.43514087 -405.20676984 51.43021324 -403.0536499 51.42590332 C-369.02249918 51.34767317 -335.44400719 49.89112129 -301.66357422 45.67016602 C-298.16402344 45.23349174 -294.66294388 44.81405459 -291.16064453 44.40014648 C-279.50319444 42.99015559 -268.02070764 41.03484034 -256.51074219 38.72241211 C-253.74332295 38.17852053 -250.97145667 37.66972687 -248.19580078 37.16967773 C-222.04590045 32.4065215 -196.08491609 26.27270279 -170.40283203 19.43530273 C-150.45770949 14.13368877 -130.2109107 10.07377444 -109.77783203 7.18530273 C-108.56353516 7.00354492 -107.34923828 6.82178711 -106.09814453 6.63452148 C-90.12437578 4.34506447 -73.9862519 3.32894587 -57.90283203 2.12280273 C-56.31970215 2.00388672 -56.31970215 2.00388672 -54.70458984 1.88256836 C-52.54204229 1.72395932 -50.37909046 1.5707918 -48.21582031 1.42236328 C-45.9112872 1.26345818 -43.60752868 1.09291902 -41.3046875 0.91113281 C-27.55276596 -0.06565063 -13.77928612 -0.00202534 0 0 Z " fill="#740E1A" transform="translate(578.77783203125,382.814697265625)"/>
<path d="M0 0 C0.86245506 -0.00290688 1.72491012 -0.00581376 2.61350018 -0.00880873 C5.51739637 -0.01613549 8.42108305 -0.00915285 11.32497787 -0.002285 C13.42240341 -0.00458839 15.51982813 -0.00776408 17.61725116 -0.01173949 C23.39200178 -0.0201132 29.16668657 -0.0159505 34.94143748 -0.00976706 C41.16517004 -0.00525398 47.38889103 -0.01222071 53.61262131 -0.0177269 C65.10492402 -0.02612014 76.5971973 -0.02537305 88.08949987 -0.01990396 C98.70808218 -0.01487544 109.32665677 -0.01355822 119.94524002 -0.01594925 C121.00124106 -0.0161784 121.00124106 -0.0161784 122.07857545 -0.01641219 C124.9362939 -0.01703486 127.79401235 -0.01767166 130.6517308 -0.01833172 C157.47101321 -0.02445247 184.2902822 -0.01889892 211.10956254 -0.00813792 C234.93574903 0.00134945 258.76191414 0.00050781 282.58810043 -0.00905991 C309.35188365 -0.01977131 336.11565501 -0.02401427 362.87944007 -0.01783538 C365.7332317 -0.01719394 368.58702334 -0.01656826 371.44081497 -0.01594925 C372.14349926 -0.01579109 372.84618354 -0.01563294 373.57016129 -0.01546999 C384.17917415 -0.01319552 394.78817843 -0.01585481 405.39719009 -0.02090836 C417.46384941 -0.02662756 429.53047798 -0.0250035 441.59713635 -0.01434687 C447.75511091 -0.00908791 453.91304207 -0.00703723 460.07101631 -0.01364517 C465.70770634 -0.01960225 471.34431272 -0.01633336 476.98099515 -0.00569007 C479.02069539 -0.00345499 481.06040269 -0.00459475 483.1000984 -0.00944164 C485.87281717 -0.01552521 488.64524962 -0.00928275 491.41795349 0 C492.20949296 -0.00468233 493.00103243 -0.00936466 493.81655794 -0.01418889 C499.25446767 0.022185 504.20027896 0.9068294 509.46065903 2.25168228 C510.73550156 2.54413834 510.73550156 2.54413834 512.03609848 2.84250259 C532.49933314 7.7358315 548.2212668 16.71857204 563.46065903 31.25168228 C564.34431137 32.02318619 564.34431137 32.02318619 565.24581528 32.81027603 C581.14641127 47.28244969 590.89114276 70.22911798 593.46065903 91.25168228 C593.54671515 93.82009666 593.59191071 96.35975437 593.58091354 98.92695999 C593.58176797 99.66798039 593.58262239 100.40900079 593.58350271 101.17247635 C593.58514072 103.63827521 593.57966382 106.10400499 593.57418442 108.56979752 C593.57390216 110.34420648 593.57406104 112.11861555 593.57462692 113.89302444 C593.57491338 118.69825208 593.56904112 123.50345466 593.56205297 128.30867648 C593.55579421 133.33484822 593.55521363 138.36102055 593.55402756 143.38719559 C593.55092168 152.89969681 593.5427183 162.41218652 593.53267807 171.92468268 C593.52149386 182.75655997 593.51600066 193.58843781 593.51098263 204.42031944 C593.50053508 226.69744681 593.48295002 248.97456382 593.46065903 271.25168228 C586.14032939 271.28562608 578.84607673 271.31921642 571.53731918 270.88449478 C570.52475807 270.82597336 570.52475807 270.82597336 569.49174118 270.76626968 C567.32748777 270.64025397 565.16362458 270.50856464 562.99972153 270.37668228 C561.47275485 270.28664391 559.94576664 270.19696988 558.41875839 270.10763931 C554.45014358 269.87451428 550.48183558 269.63652835 546.51357651 269.39743423 C542.4440319 269.15313266 538.37420901 268.91356005 534.30440903 268.67355728 C526.35621684 268.2041562 518.40834331 267.7296056 510.46065903 267.25168228 C513.69786865 263.42267568 516.93941382 259.64646259 520.48409653 256.09543228 C521.19565903 255.38258072 521.90722153 254.66972916 522.64034653 253.93527603 C523.36479965 253.21469009 524.08925278 252.49410416 524.83565903 251.75168228 C525.55237778 251.03109634 526.26909653 250.31051041 527.00753403 249.56808853 C531.08789171 245.49509612 535.27233636 241.61853418 539.63888168 237.85519791 C542.20465892 235.5968188 544.57234182 233.1975493 546.96065903 230.75168228 C550.68431865 226.97134007 554.50329801 223.38313012 558.55050278 219.95090103 C561.40184642 217.41442969 563.9970169 214.6404563 566.60128403 211.85324478 C568.46065903 210.25168228 568.46065903 210.25168228 570.57003403 209.77511978 C571.19394028 209.60238541 571.81784653 209.42965103 572.46065903 209.25168228 C572.74457504 208.66854263 573.02849106 208.08540298 573.32101059 207.48459244 C574.69560145 204.79136021 576.41737232 203.10002426 578.58565903 201.00168228 C579.31011215 200.29527603 580.03456528 199.58886978 580.78097153 198.86105728 C581.3352684 198.32996353 581.88956528 197.79886978 582.46065903 197.25168228 C569.52390635 199.59084658 556.60591458 202.01458497 543.70675278 204.55246353 C542.68551315 204.75327026 541.66427353 204.954077 540.61208725 205.16096878 C535.45902973 206.17513113 530.30681838 207.19340813 525.15548325 208.21628189 C523.22206512 208.59793886 521.28863465 208.97953331 519.35519028 209.36105728 C518.03616966 209.62484932 518.03616966 209.62484932 516.69050217 209.89397049 C512.82085868 210.65545196 508.97855113 211.34437894 505.06100082 211.80734634 C501.43989782 212.15989236 501.43989782 212.15989236 497.96065903 213.25168228 C493.15332445 214.62520645 488.47594431 215.25168228 483.46065903 215.25168228 C484.63253403 213.68918228 485.80440903 212.12668228 486.97628403 210.56418228 C488.2335816 208.60544502 489.22305493 206.72578485 490.22628403 204.63449478 C492.72929263 199.53157166 495.82997998 194.86174561 498.96065903 190.12668228 C499.52913559 189.25914322 500.09761215 188.39160416 500.68331528 187.49777603 C502.99492637 183.97404405 505.31963113 180.46086122 507.67550278 176.96652603 C509.40242532 174.34024339 510.97553572 171.67424034 512.52315903 168.93918228 C515.8909498 163.11750977 519.50216662 157.48202751 523.17696762 151.85031509 C528.0446998 144.38343878 532.76148295 136.82540859 537.46065903 129.25168228 C536.85407455 129.55759293 536.24749008 129.86350357 535.62252426 130.17868423 C514.68526884 140.72487188 493.57701116 150.8559077 472.28609848 160.66598892 C465.03027729 164.01940856 457.87216909 167.49033547 450.83175278 171.27511978 C448.46065903 172.25168228 448.46065903 172.25168228 445.46065903 171.25168228 C449.52292356 157.76937431 453.71445785 144.34606123 458.21065903 131.00168228 C464.21892402 113.16717282 469.83905434 95.21112264 475.46065903 77.25168228 C470.19383836 81.10325422 465.16704119 85.12570663 460.27315903 89.43918228 C458.9624771 90.58430439 457.65126967 91.72882527 456.33956528 92.87277603 C455.36527573 93.72331558 455.36527573 93.72331558 454.37130356 94.59103775 C447.68409407 100.40325331 440.89728618 106.09956356 434.02315903 111.68918228 C429.84724096 115.09043728 425.73400227 118.55590716 421.64815903 122.06418228 C420.77659164 122.81199966 420.77659164 122.81199966 419.88741684 123.57492447 C416.76882358 126.25509935 413.66096829 128.94702348 410.56222153 131.65011978 C409.92776108 132.20079117 409.29330063 132.75146255 408.63961411 133.31882095 C407.41997005 134.37765386 406.20351106 135.44016977 404.99068832 136.50680923 C402.48833412 138.67488088 400.63542057 140.19342844 397.46065903 141.25168228 C398.07463301 124.61265666 398.84948066 107.98677737 399.76290512 91.36154556 C399.96355657 87.69878964 400.15948587 84.03579926 400.35519028 80.37277603 C400.48381539 78.00947946 400.61271133 75.64619762 400.74190903 73.28293228 C400.79923203 72.20475235 400.85655502 71.12657242 400.91561508 70.01572037 C401.21030012 64.7212194 401.63273035 59.48095446 402.2588768 54.21591568 C402.53437318 51.53411761 402.55726098 48.88323647 402.52315903 46.18918228 C402.50962387 44.77959244 402.50962387 44.77959244 402.49581528 43.34152603 C402.48421371 42.65187759 402.47261215 41.96222916 402.46065903 41.25168228 C394.040948 52.85850398 385.70727443 64.52134816 377.46065903 76.25168228 C375.48278467 79.06509433 373.50383072 81.87773877 371.52315903 84.68918228 C371.03355698 85.38430923 370.54395493 86.07943619 370.03951645 86.79562759 C365.76683181 92.84749408 361.41881102 98.84347612 357.05929184 104.83298111 C353.17114263 110.19902981 349.49308869 115.65867781 345.94894028 121.25949478 C345.45780746 121.91691666 344.96667465 122.57433853 344.46065903 123.25168228 C343.80065903 123.25168228 343.14065903 123.25168228 342.46065903 123.25168228 C342.32530746 122.28617447 342.1899559 121.32066666 342.05050278 120.32590103 C340.38130559 108.93688192 338.22159533 97.65999081 335.96065903 86.37668228 C335.81135941 85.62873398 335.66205978 84.88078568 335.50823593 84.11017227 C334.05686401 76.8549007 332.57022339 69.61776895 330.87081528 62.41574478 C329.47719934 56.47784966 328.39265695 50.51778085 327.39815903 44.50168228 C327.07605157 42.56903755 326.75186028 40.63673887 326.42550278 38.70480728 C326.28749252 37.87110611 326.14948227 37.03740494 326.00728989 36.17844009 C325.26043576 32.17965168 324.36149195 28.21822173 323.46065903 24.25168228 C323.21168869 24.89694366 322.96271835 25.54220505 322.70620346 26.20701981 C301.53815178 81.06788435 301.53815178 81.06788435 294.21065903 100.00168228 C293.74111801 101.21541519 293.271577 102.4291481 292.78780746 103.6796608 C292.15407211 105.31632706 292.15407211 105.31632706 291.50753403 106.98605728 C290.97917953 108.35069107 290.97917953 108.35069107 290.44015121 109.74289322 C289.46074136 112.2514714 288.46448875 114.75278702 287.46065903 117.25168228 C286.80065903 117.25168228 286.14065903 117.25168228 285.46065903 117.25168228 C284.85145615 115.95025284 284.85145615 115.95025284 284.22994614 114.62253189 C282.28844247 110.47694298 280.34395502 106.33275811 278.39815903 102.18918228 C278.03985001 101.42615799 277.68154099 100.6631337 277.31237411 99.87698746 C272.16509457 88.92352168 266.94476841 78.00864355 261.64815903 67.12668228 C255.38493902 54.25791139 249.34489357 41.29900905 243.46065903 28.25168228 C241.88894464 35.69224505 240.99887469 43.13717567 240.24067307 50.69299698 C239.66289424 56.41896589 239.00646925 62.12901278 238.27706528 67.83761978 C238.17563721 68.63266922 238.07420914 69.42771866 237.96970749 70.2468605 C237.76143505 71.87433824 237.5527164 73.50175893 237.34356308 75.12912369 C235.117642 92.48024108 233.14446117 109.83911317 231.46065903 127.25168228 C227.74779254 125.53846029 225.93634117 123.67951575 223.39815903 120.43918228 C222.61311996 119.45304947 221.8280809 118.46691666 221.01925278 117.45090103 C220.60401352 116.92802505 220.18877426 116.40514908 219.760952 115.86642838 C217.54688793 113.11693162 215.25132134 110.43738289 212.96065903 107.75168228 C208.83867845 102.90292207 204.79072557 98.00004975 200.77315903 93.06418228 C198.19919511 89.93368562 195.58496816 86.83995767 192.96065903 83.75168228 C188.8497788 78.9140166 184.80918953 74.02550875 180.80440903 69.09933853 C177.58538704 65.18822681 174.3014696 61.3330982 171.00167465 57.48996353 C167.56836673 53.46709768 167.56836673 53.46709768 166.46065903 51.25168228 C167.07526977 64.53776764 169.02488375 77.65059276 170.83565903 90.81418228 C171.14333857 93.07780147 171.45063256 95.3414731 171.75753403 97.60519791 C173.2941112 108.90667822 174.85811265 120.20366781 176.51800156 131.48778152 C177.42515949 137.72933313 178.08249531 143.95330045 178.46065903 150.25168228 C175.79916994 148.97925577 173.38832076 147.59567566 170.98409653 145.88840103 C170.32288803 145.42055191 169.66167953 144.95270279 168.98043442 144.47067642 C168.27265854 143.96528336 167.56488266 143.45989029 166.83565903 142.93918228 C166.08856674 142.4086525 165.34147446 141.87812271 164.57174301 141.33151627 C156.92541724 135.89194993 149.32092644 130.39440617 141.72237778 124.88840103 C139.4812617 123.26659164 137.23714588 121.64903096 134.99190903 120.03293228 C126.25968289 113.74508094 117.56652416 107.40766438 108.91598129 101.0077858 C104.46005687 97.71314041 99.97940714 94.45969419 95.46065903 91.25168228 C95.90796371 92.18367447 96.3552684 93.11566666 96.81612778 94.07590103 C97.42705312 95.36354369 98.03771565 96.65131106 98.64815903 97.93918228 C98.94013168 98.54568619 99.23210434 99.15219009 99.53292465 99.77707291 C101.97014501 104.93978699 104.01290906 110.2190214 106.03902817 115.5546608 C108.48153782 121.90652815 111.05844124 128.2039614 113.6222496 134.50763321 C114.60495718 136.92413694 115.58583315 139.34137786 116.56637192 141.75876236 C119.65845014 149.37831925 122.76109218 156.99336563 125.88644028 164.59933853 C126.40391122 165.86087172 126.92132838 167.12242698 127.43868637 168.3840065 C128.39294765 170.70852186 129.35018235 173.03181937 130.31075668 175.35373306 C130.93989975 176.88683121 130.93989975 176.88683121 131.58175278 178.45090103 C131.94712143 179.33608414 132.31249008 180.22126724 132.68893051 181.13327408 C133.46065903 183.25168228 133.46065903 183.25168228 133.46065903 185.25168228 C129.2523435 184.66353216 125.565861 183.68187908 121.60909653 182.14230728 C120.50952621 181.71691666 119.4099559 181.29152603 118.27706528 180.85324478 C117.14140121 180.40722916 116.00573715 179.96121353 114.83565903 179.50168228 C113.16696762 178.85586197 113.16696762 178.85586197 111.46456528 178.19699478 C106.19803899 176.14924183 100.95721842 174.05463233 95.74972153 171.86105728 C87.719125 168.49103936 79.58469837 165.38762833 71.46065903 162.25168228 C45.1429695 152.09283752 45.1429695 152.09283752 39.46065903 149.25168228 C46.10907081 158.30206264 52.76161813 167.34786552 59.52315903 176.31418228 C63.72355992 181.88654182 67.83121052 187.51879481 71.89815903 193.18918228 C76.27525003 199.29183825 80.75202532 205.30262634 85.33565903 211.25168228 C98.46065903 228.30443117 98.46065903 228.30443117 98.46065903 231.25168228 C69.39511535 228.53443256 69.39511535 228.53443256 58.77315903 226.81418228 C47.96306748 225.06392112 37.08768355 223.90087518 26.20602036 222.69723892 C16.9389732 221.66932757 7.69735044 220.52620249 -1.53934097 219.25168228 C-0.63965591 219.95196548 0.26002914 220.65224869 1.18697739 221.37375259 C9.29153568 227.6876206 17.25045521 234.16207742 25.16769028 240.70871353 C29.26883781 244.09871153 33.39127165 247.46175258 37.52315903 250.81418228 C38.17550522 251.34350357 38.82785141 251.87282486 39.49996567 252.41818619 C40.81811228 253.4873586 42.13639042 254.55636888 43.45479965 255.62521744 C48.85530723 260.00425608 54.25073898 264.38953691 59.64474106 268.77658463 C61.35099392 270.16259966 63.05977376 271.54543108 64.76925278 272.92746353 C65.73991684 273.71508072 66.7105809 274.50269791 67.71065903 275.31418228 C68.54081528 275.98578384 69.37097153 276.65738541 70.22628403 277.34933853 C72.42306072 279.21967113 74.43298223 281.20138704 76.46065903 283.25168228 C67.75046743 284.77438227 59.0247011 286.0127468 50.25362778 287.12668228 C48.91663114 287.29818712 47.5796617 287.46990402 46.24271774 287.641819 C42.75211687 288.09015101 39.26118781 288.53587133 35.7701683 288.98093033 C31.56263384 289.51777915 27.35546763 290.05750448 23.14827824 290.59704971 C19.86735721 291.01778762 16.58636268 291.43791108 13.30518723 291.85666275 C12.10376587 292.01022232 10.90234451 292.16378189 9.66451645 292.32199478 C8.48900223 292.4718483 7.31348801 292.62170181 6.10235214 292.77609634 C3.54162497 293.11051382 0.98397719 293.45490638 -1.57336807 293.81320572 C-2.24277514 293.90592758 -2.91218222 293.99864944 -3.60187435 294.09418106 C-5.46355688 294.35306883 -7.32461448 294.61643917 -9.18562698 294.88010025 C-12.34095408 295.22970157 -15.36899315 295.27806845 -18.53934097 295.25168228 C-18.65375804 258.79174611 -18.74187543 222.33184139 -18.79466762 185.87176269 C-18.80092124 181.56838924 -18.80739284 177.26501614 -18.81399918 172.96164322 C-18.81531073 172.10491064 -18.81662228 171.24817807 -18.81797358 170.36548389 C-18.83973662 156.4890833 -18.87916308 142.61278616 -18.92510495 128.73644696 C-18.97184461 114.50052822 -18.99963109 100.26466371 -19.00978345 86.02867138 C-19.01664779 77.24258331 -19.03833642 68.45678763 -19.07892331 59.67078955 C-19.10533096 53.64781396 -19.11334648 47.62498977 -19.10684786 41.60196047 C-19.10364182 38.1256591 -19.10859351 34.64986907 -19.13536835 31.17365837 C-19.16016923 27.40497435 -19.15429151 23.6375512 -19.14061356 19.86883926 C-19.15517776 18.76961415 -19.16974197 17.67038904 -19.18474752 16.53785408 C-19.10350771 8.282027 -19.10350771 8.282027 -16.31426144 4.65060997 C-11.18668341 0.21780223 -6.58928589 -0.038523 0 0 Z " fill="#D8C58E" transform="translate(113.53934097290039,58.74831771850586)"/>
<path d="M0 0 C3.43475284 2.68234258 4.34135435 6.29314595 5.6015625 10.2890625 C5.83960602 11.01715118 6.07764954 11.74523987 6.32290649 12.49539185 C6.83323489 14.05863095 7.33960817 15.62316571 7.84240723 17.18884277 C9.15510245 21.2751723 10.49649626 25.35206245 11.8359375 29.4296875 C12.23582886 30.65044983 12.23582886 30.65044983 12.64379883 31.89587402 C16.18984738 42.68271795 20.07088762 53.34733741 24 64 C24.51216064 63.01326294 24.51216064 63.01326294 25.03466797 62.0065918 C29.01763657 54.33487389 33.00709889 46.66655257 37 39 C37.47920898 38.07896484 37.95841797 37.15792969 38.45214844 36.20898438 C44.10398945 25.35644708 49.93225275 14.62588588 56 4 C56.33 4 56.66 4 57 4 C58.4685743 16.9504123 59.57421913 29.89785727 60.43261719 42.90258789 C60.62782887 45.85528841 60.82917169 48.80752782 61.03125 51.75976562 C61.15920723 53.65883041 61.2868244 55.55791815 61.4140625 57.45703125 C61.47340973 58.32890579 61.53275696 59.20078033 61.59390259 60.09907532 C61.87594592 64.40880653 62.06585194 68.67791762 62 73 C62.66 73 63.32 73 64 73 C64.39505737 72.12166504 64.39505737 72.12166504 64.7980957 71.22558594 C66.05322783 68.90143714 67.40685954 67.29392262 69.23046875 65.390625 C69.86919922 64.71773438 70.50792969 64.04484375 71.16601562 63.3515625 C71.83310547 62.65804687 72.50019531 61.96453125 73.1875 61.25 C78.25981287 55.94047449 83.19151714 50.54959151 88 45 C90.9807857 41.64918573 93.98889459 38.32357861 97 35 C97.48146484 34.46665039 97.96292969 33.93330078 98.45898438 33.38378906 C99.96973439 31.7115184 101.48438852 30.04286468 103 28.375 C103.72171387 27.57497559 103.72171387 27.57497559 104.45800781 26.75878906 C105.61801571 25.48671119 106.80633949 24.24055432 108 23 C108.33 23 108.66 23 109 23 C108.33170729 29.46016289 107.46579198 35.87501631 106.5234375 42.30078125 C106.19117351 44.64894543 105.88120289 47.000458 105.6015625 49.35546875 C103.96841513 62.99070856 101.43100121 76.69878179 98 90 C110.8324278 81.71490232 123.58271783 73.31305297 136.28125 64.82421875 C137.209375 64.20466309 138.1375 63.58510742 139.09375 62.94677734 C141.16028868 61.56248808 143.22232845 60.17147231 145.28125 58.77587891 C146.35375 58.05190918 147.42625 57.32793945 148.53125 56.58203125 C149.50642578 55.92050049 150.48160156 55.25896973 151.48632812 54.57739258 C154 53 154 53 157 52 C154.88980244 57.4513437 152.45429064 62.75814378 150.0625 68.08984375 C148.56362439 71.44357792 147.08370889 74.80085582 145.66015625 78.1875 C142.56931316 85.53337642 139.25291825 92.65926032 135.61328125 99.74609375 C133.14305001 104.72842456 130.83864452 109.46494618 130 115 C132.54377987 114.23565759 135.08486141 113.46377703 137.625 112.6875 C138.33785156 112.47416016 139.05070312 112.26082031 139.78515625 112.04101562 C144.10910532 110.7120955 147.94758775 109.0316676 152 107 C154.2348636 106.30359108 156.48645138 105.65911406 158.75 105.0625 C163.81495947 103.66764729 168.58595682 102.04146021 173.421875 100.0078125 C177.54297291 98.39683786 181.77757897 97.1800559 186.01953125 95.9296875 C188.7481433 95.07856081 191.36393921 94.101201 194 93 C193.49236539 97.24382531 190.85174369 99.81036813 188.125 102.875 C184.18634941 107.41045477 180.36671998 112.00154083 176.6875 116.75 C171.86896844 122.95544443 166.89608153 129.02323082 161.8581543 135.05175781 C161.299104 135.72432617 160.74005371 136.39689453 160.1640625 137.08984375 C159.67373535 137.67628662 159.1834082 138.26272949 158.67822266 138.86694336 C156.3422017 141.83607562 154.18129145 144.9154272 152 148 C157.78445946 147.59602652 163.56852877 147.18697478 169.35229492 146.77319336 C171.32029466 146.63312047 173.28839407 146.49444072 175.2565918 146.35717773 C178.0840949 146.15974432 180.9112028 145.95731885 183.73828125 145.75390625 C184.61962234 145.6934462 185.50096344 145.63298615 186.40901184 145.57069397 C187.22963608 145.51070724 188.05026031 145.45072052 188.89575195 145.38891602 C189.61745071 145.33784195 190.33914948 145.28676788 191.0827179 145.23414612 C193.21775827 145.03791008 193.21775827 145.03791008 196 144 C204.317626 143.03060762 212.63554081 142.86436012 221 143 C216.70809911 147.64154658 211.83516041 151.16810269 206.6875 154.8125 C205.85154297 155.40998047 205.01558594 156.00746094 204.15429688 156.62304688 C202.10581432 158.0862487 200.05436616 159.54507639 198 161 C198.64082016 160.93149338 199.28164032 160.86298676 199.94187927 160.79240417 C218.29152977 158.83214917 236.64394892 156.8994138 255 155 C256.45273315 154.84927032 256.45273315 154.84927032 257.93481445 154.69549561 C263.18395547 154.15236842 268.43459054 153.63039332 273.6875 153.125 C274.854021 153.00535889 276.02054199 152.88571777 277.22241211 152.76245117 C288.25339552 151.73783569 298.75585841 152 310 152 C310 169.82 310 187.64 310 206 C284 206 284 206 274 205 C270.58193637 204.80833288 267.16996179 204.63785115 263.75 204.5 C262.81124023 204.45939453 261.87248047 204.41878906 260.90527344 204.37695312 C257.9369559 204.24862546 254.96850756 204.12384908 252 204 C248.08318609 203.83658664 244.16655871 203.66940831 240.25 203.5 C239.37053711 203.46455078 238.49107422 203.42910156 237.58496094 203.39257812 C233.44884883 203.21336232 229.35961007 202.94842992 225.24584961 202.47924805 C218.77722615 201.79991217 212.31480785 201.83813582 205.81640625 201.83203125 C204.44533736 201.82803754 203.07426903 201.82384698 201.70320129 201.81947327 C197.3229551 201.80817303 192.94275616 201.8098025 188.5625 201.8125 C187.06089274 201.81244398 185.55928548 201.81238294 184.05767822 201.81231689 C158.98870945 201.82053276 133.97497995 201.9724218 109.08152771 205.27587891 C104.38919523 205.87919143 99.71955947 206.24453919 94.99609375 206.4921875 C86.95192561 206.92814927 79.02280904 207.92882864 71.0625 209.125 C69.98323746 209.28489914 69.98323746 209.28489914 68.88217163 209.44802856 C46.54145994 212.78428141 24.54409437 217.63074167 2.73046875 223.4765625 C-19.78060221 229.49883196 -42.49321509 234.26348945 -65.35942078 238.69917297 C-69.49545209 239.50297632 -73.62321614 240.33067928 -77.7421875 241.21875 C-94.97026651 244.86993212 -112.58192082 246.46360321 -130.06420898 248.43505859 C-133.20663844 248.79093503 -136.34637866 249.16215624 -139.48461914 249.55322266 C-149.29074239 250.77066624 -159.06854219 251.62358682 -168.9375 252.125 C-170.14983307 252.18753967 -170.14983307 252.18753967 -171.38665771 252.25134277 C-188.74011743 253.10874267 -206.10135792 253.21987961 -223.47206497 253.2458725 C-225.58481728 253.24992296 -227.69753266 253.25741323 -229.81027222 253.26568604 C-274.78898767 253.41931222 -274.78898767 253.41931222 -294 250 C-294 249.34 -294 248.68 -294 248 C-296.31 248 -298.62 248 -301 248 C-301.33 246.35 -301.66 244.7 -302 243 C-298.90921277 242.09085278 -296.18909351 241.89279089 -292.97314453 241.93408203 C-291.96800812 241.94369461 -290.9628717 241.95330719 -289.92727661 241.96321106 C-288.84010345 241.97792953 -287.7529303 241.99264801 -286.6328125 242.0078125 C-284.29427944 242.02811641 -281.95573701 242.04736264 -279.6171875 242.06567383 C-278.39354492 242.07611725 -277.16990234 242.08656067 -275.90917969 242.09732056 C-254.67588208 242.25263185 -234.05154708 241.88319275 -213 239 C-209.58413856 238.55617086 -206.16707982 238.12183757 -202.75 237.6875 C-197.45255534 237.01389734 -192.15595736 236.33644551 -186.86328125 235.6262207 C-186.05342773 235.51870483 -185.24357422 235.41118896 -184.40917969 235.30041504 C-182.89247761 235.09867725 -181.37616655 234.89396747 -179.86035156 234.68566895 C-175.87713571 234.15918153 -172.01710613 233.90059391 -168 234 C-168 233.34 -168 232.68 -168 232 C-169.00538818 231.87616943 -170.01077637 231.75233887 -171.04663086 231.62475586 C-174.88992937 231.07343957 -178.52565619 230.09776515 -182.25390625 229.00390625 C-182.91784897 228.81030014 -183.58179169 228.61669403 -184.26585388 228.41722107 C-186.36607625 227.80345146 -188.46424592 227.18296057 -190.5625 226.5625 C-191.97318612 226.14997602 -193.38399253 225.73786318 -194.79492188 225.32617188 C-200.56099745 223.63747579 -206.30928053 221.93098374 -212 220 C-209.37735776 217.37735776 -207.25229559 217.12775223 -203.65625 216.23046875 C-203.01949341 216.06922012 -202.38273682 215.9079715 -201.72668457 215.74183655 C-200.36135155 215.39678572 -198.99523018 215.05484232 -197.62841797 214.71569824 C-194.07178734 213.83306801 -190.52072835 212.92847677 -186.96875 212.02734375 C-186.27096436 211.85103424 -185.57317871 211.67472473 -184.85424805 211.49307251 C-179.54865512 210.14975393 -174.26684326 208.73733447 -169 207.25 C-168.31437988 207.05664062 -167.62875977 206.86328125 -166.92236328 206.6640625 C-165.60740236 206.29320068 -164.29246023 205.92227225 -162.97753906 205.55126953 C-157.33381559 203.97799452 -151.66468851 202.49554461 -146 201 C-148.39401981 198.36549405 -150.96484974 196.68788968 -154.0234375 194.8828125 C-155.03470703 194.28194824 -156.04597656 193.68108398 -157.08789062 193.06201172 C-158.17263672 192.42279785 -159.25738281 191.78358398 -160.375 191.125 C-162.64399604 189.77733197 -164.91221232 188.42835033 -167.1796875 187.078125 C-167.75205139 186.73760101 -168.32441528 186.39707703 -168.91412354 186.04623413 C-175.33380302 182.21920048 -181.6778466 178.27212014 -188.00927734 174.30126953 C-193.25102267 171.02851552 -198.56866553 167.94765075 -204 165 C-204 164.34 -204 163.68 -204 163 C-180.9 163 -157.8 163 -134 163 C-134 162.34 -134 161.68 -134 161 C-134.60078369 160.72969971 -135.20156738 160.45939941 -135.82055664 160.1809082 C-137.99798163 159.00109363 -139.22860957 157.93301356 -140.87109375 156.10546875 C-141.43183594 155.4930835 -141.99257812 154.88069824 -142.5703125 154.24975586 C-143.18648437 153.56921143 -143.80265625 152.88866699 -144.4375 152.1875 C-152.56217047 143.37219279 -161.00970542 134.89861165 -169.5 126.4375 C-170.16562958 125.77382416 -170.83125916 125.11014832 -171.51705933 124.42636108 C-175.34135868 120.61419955 -179.16916395 116.8055923 -183 113 C-179.74052177 111.91350726 -178.86668327 112.06317196 -175.64453125 112.86328125 C-174.73050537 113.08612793 -173.81647949 113.30897461 -172.87475586 113.53857422 C-171.86421143 113.79396973 -170.85366699 114.04936523 -169.8125 114.3125 C-168.75490479 114.57305176 -167.69730957 114.83360352 -166.60766602 115.10205078 C-163.48004902 115.87514993 -160.35461851 116.65654802 -157.2298584 117.44110107 C-153.88741582 118.2788617 -150.54348946 119.11064475 -147.19972229 119.94309998 C-136.46335477 122.6162927 -125.73074029 125.30431645 -115 128 C-120.56734076 117.91993369 -126.16787 107.86758007 -132 97.9375 C-132.58595947 96.93380371 -133.17191895 95.93010742 -133.77563477 94.89599609 C-136.53950645 90.16708135 -139.32208074 85.45122608 -142.15234375 80.76171875 C-142.62607422 79.97224854 -143.09980469 79.18277832 -143.58789062 78.36938477 C-144.46629779 76.90860383 -145.3513877 75.45181382 -146.24414062 73.99975586 C-147.22355457 72.36815629 -148.12157728 70.68811799 -149 69 C-148.67 68.34 -148.34 67.68 -148 67 C-147.25129639 67.40202637 -146.50259277 67.80405273 -145.73120117 68.21826172 C-132.94028728 75.08435456 -120.14924912 81.94816211 -107.29248047 88.69042969 C-100.83527555 92.07862086 -94.41050932 95.52428399 -88 99 C-89.94429348 89.51925464 -92.62292763 80.30700197 -95.37231445 71.03491211 C-97.49804671 63.82906871 -99.40022496 56.60506868 -101.15234375 49.30078125 C-101.90319983 46.37694077 -102.7902409 43.58757122 -103.8125 40.75 C-104.96458026 37.1118518 -105.09493269 36.36673181 -104 33 C-102.76636719 34.14275391 -102.76636719 34.14275391 -101.5078125 35.30859375 C-96.36421097 40.06797444 -91.2192127 44.82337872 -86 49.5 C-82.13337067 52.96490161 -78.31000739 56.47319874 -74.5 60 C-63.98341275 69.76855619 -63.98341275 69.76855619 -53 79 C-53.0714624 77.69466309 -53.1429248 76.38932617 -53.21655273 75.04443359 C-53.94910454 60.89425804 -54.12236561 46.79168841 -54.0625 32.625 C-54.0574645 30.50911567 -54.05290529 28.39323015 -54.04882812 26.27734375 C-54.03800888 21.18486545 -54.02086279 16.09244664 -54 11 C-48.61775699 16.24004741 -48.61775699 16.24004741 -46.703125 19.29296875 C-46.11349976 20.21952271 -46.11349976 20.21952271 -45.51196289 21.16479492 C-45.09551514 21.8322876 -44.67906738 22.49978027 -44.25 23.1875 C-43.29654181 24.68811606 -42.34204024 26.18806947 -41.38671875 27.6875 C-40.85868652 28.51894531 -40.3306543 29.35039062 -39.78662109 30.20703125 C-36.628752 35.14362901 -33.41398453 40.04316518 -30.20324707 44.94546509 C-29.08095914 46.65931105 -27.95976863 48.37387004 -26.83886719 50.08862305 C-22.85488182 56.19387893 -22.85488182 56.19387893 -18.76733398 62.22973633 C-17 65 -17 65 -17 67 C-16.34 67 -15.68 67 -15 67 C-14.96479248 66.42314453 -14.92958496 65.84628906 -14.89331055 65.25195312 C-14.3297076 58.07753569 -12.71015767 51.42650116 -10.8125 44.5 C-7.43792954 31.86512335 -4.42202966 19.1706331 -1.55322266 6.41235352 C-1.06134808 4.26751119 -0.54250749 2.13251944 0 0 Z " fill="#FEFEFE" transform="translate(397,182)"/>
<path d="M0 0 C0.33 0 0.66 0 1 0 C5.89577362 23.91229488 5.89577362 23.91229488 7.5 34.0625 C8.59971622 40.95964183 9.93993427 47.78994468 11.375 54.625 C11.58535889 55.62740723 11.79571777 56.62981445 12.01245117 57.66259766 C13.13158976 62.96342523 14.27409355 68.25864286 15.43359375 73.55078125 C15.66449707 74.62054199 15.89540039 75.69030273 16.13330078 76.79248047 C16.57297544 78.82838593 17.02008696 80.86270547 17.47607422 82.89501953 C18.73038416 88.7319574 19.21433804 94.02915451 19 100 C19.66 100 20.32 100 21 100 C21.20882813 99.34515625 21.41765625 98.6903125 21.6328125 98.015625 C23.52117638 93.8504338 26.15840631 90.41299959 28.875 86.75 C30.06073045 85.1308192 31.24560731 83.511013 32.4296875 81.890625 C33.0287793 81.07271484 33.62787109 80.25480469 34.24511719 79.41210938 C36.87074417 75.80315075 39.43700635 72.15357447 42 68.5 C46.65541366 61.8775318 51.37828367 55.30668673 56.12915039 48.75244141 C60.42688235 42.81504882 64.66471417 36.83720488 68.8671875 30.83203125 C71.30206741 27.36249981 73.76907063 23.91902236 76.28515625 20.5078125 C76.78023682 19.83637207 77.27531738 19.16493164 77.78540039 18.47314453 C78.18621826 17.98700684 78.58703613 17.50086914 79 17 C79.33 17 79.66 17 80 17 C80.28805694 24.44147096 79.80237849 31.68974806 79.09375 39.08984375 C77.9095029 52.0862779 77.21469966 65.09821358 76.56738281 78.13085938 C76.37246268 82.05102979 76.17106201 85.97082972 75.96875 89.890625 C75.84077515 92.40623117 75.71315745 94.92185554 75.5859375 97.4375 C75.52659027 98.59789795 75.46724304 99.7582959 75.40609741 100.95385742 C75.14182979 106.30970762 74.92766496 111.6375625 75 117 C81.27495545 111.95133522 87.43078315 106.79281398 93.5 101.5 C98.6557334 97.00489342 103.87510909 92.61376752 109.19140625 88.30859375 C112.5029848 85.58655909 115.75313059 82.79860269 119 80 C123.97533013 75.71231167 129.01335782 71.51830598 134.11328125 67.37890625 C139.81895399 62.67693778 145.40229574 57.82955215 151 53 C151.66 53.66 152.32 54.32 153 55 C152.78639328 55.64890701 152.57278656 56.29781403 152.35270691 56.96638489 C149.62743326 65.24726164 146.90591355 73.52936893 144.1875 81.8125 C143.86312265 82.80087986 143.86312265 82.80087986 143.53219223 83.80922699 C136.52774095 105.1564101 129.63191115 126.53373123 123 148 C127.22828226 146.67444672 131.14017301 145.0712789 135.12109375 143.12890625 C136.29140137 142.56051025 137.46170898 141.99211426 138.66748047 141.40649414 C139.92415884 140.79184004 141.18083188 140.17717506 142.4375 139.5625 C144.41079298 138.60247882 146.38471853 137.64376617 148.35864258 136.68504333 C149.68584168 136.04026966 151.01282712 135.395056 152.33959961 134.74940491 C158.89876249 131.55811124 165.48152893 128.41707193 172.06689453 125.28027344 C177.80622499 122.54111625 183.53011251 119.77181542 189.24609375 116.984375 C190.6785191 116.28696827 192.11097352 115.58962125 193.54345703 114.89233398 C195.66944597 113.85743335 197.79473185 112.82120894 199.91790771 111.7805481 C201.88763123 110.81511612 203.85959176 109.85439914 205.83203125 108.89453125 C206.97389893 108.33612549 208.1157666 107.77771973 209.29223633 107.20239258 C212 106 212 106 214 106 C212.6940126 109.51112827 211.15296045 112.55409497 209.12890625 115.703125 C208.27474121 117.03839233 208.27474121 117.03839233 207.40332031 118.40063477 C206.79584961 119.34092529 206.18837891 120.28121582 205.5625 121.25 C204.94084961 122.2205835 204.31919922 123.19116699 203.67871094 124.19116211 C200.70678501 128.8250103 197.7142708 133.44488647 194.69921875 138.05078125 C194.19898193 138.81680664 193.69874512 139.58283203 193.18334961 140.37207031 C192.25232399 141.7948538 191.31716629 143.21494505 190.37719727 144.63183594 C188.15531971 148.02219946 186.48194117 151.21354239 185 155 C183.66015625 156.82421875 183.66015625 156.82421875 182.0625 158.6875 C175.36225269 167.03465683 170.06904176 176.57368857 164.79296875 185.8671875 C163.59902171 187.95334333 162.33330771 190.00003844 161 192 C167.97343857 190.66074371 167.97343857 190.66074371 174.875 189 C178.02086899 188.18868132 181.16001668 187.62111027 184.36816406 187.11157227 C191.35513338 185.96464642 198.29149593 184.60103707 205.234375 183.21484375 C206.56564693 182.95081659 207.89696714 182.68703272 209.22833252 182.42347717 C214.81745687 181.31660044 220.40568559 180.20523376 225.99365234 179.0925293 C229.43701566 178.40704744 232.88091698 177.724323 236.32514191 177.04318428 C238.25085912 176.6614651 240.17594483 176.27656445 242.10101318 175.8915863 C248.05817478 174.71360001 253.96040159 173.64214121 260 173 C259.62488281 173.43570313 259.24976563 173.87140625 258.86328125 174.3203125 C258.35152344 174.91585937 257.83976563 175.51140625 257.3125 176.125 C256.48685547 177.08212891 256.48685547 177.08212891 255.64453125 178.05859375 C254.64213386 179.24194649 253.65571502 180.43940275 252.69921875 181.66015625 C250.70546294 184.19943482 248.9284952 186.04646811 246.2109375 187.8125 C242.73167216 190.18280242 240.02468599 192.79102244 237.125 195.8125 C233.82328636 199.18732555 230.53912406 202.50297606 226.9375 205.5625 C222.67964773 209.18300225 218.80730045 213.16119834 214.90625 217.15625 C211.40595282 220.58127198 207.68554072 223.77515187 204 227 C198.72 232.28 193.44 237.56 188 243 C215.06 244.65 242.12 246.3 270 248 C270 248.99 270 249.98 270 251 C268.47381294 251.14034416 268.47381294 251.14034416 266.91679382 251.28352356 C257.19758489 252.17761615 247.47863177 253.07444723 237.75990582 253.97377491 C232.76673386 254.43573711 227.77348476 254.89682456 222.7800293 255.35571289 C200.82969998 257.37353122 178.89229534 259.41480721 157 262 C159.98420863 258.92404015 162.93519484 256.15406986 166.42578125 253.66796875 C167.22177734 253.09755859 168.01777344 252.52714844 168.83789062 251.93945312 C170.06282227 251.07223633 170.06282227 251.07223633 171.3125 250.1875 C172.56643555 249.2912793 172.56643555 249.2912793 173.84570312 248.37695312 C175.89418568 246.9137513 177.94563384 245.45492361 180 244 C173.97982362 243.95713482 168.0059311 243.95908637 162 244.4375 C160.9275 244.51871094 159.855 244.59992188 158.75 244.68359375 C155.91408976 244.91434891 155.91408976 244.91434891 153 246 C149.11709252 246.48441808 145.21303908 246.75546961 141.3125 247.0625 C140.19302979 247.15192871 139.07355957 247.24135742 137.92016602 247.33349609 C129.25537755 247.98741889 120.68594941 248.23300609 112 248 C113.29108381 245.23344582 114.7064804 242.95037933 116.65234375 240.6015625 C117.17562256 239.96484619 117.69890137 239.32812988 118.23803711 238.67211914 C118.79885986 237.99656982 119.35968262 237.32102051 119.9375 236.625 C121.12596555 235.17917856 122.31345009 233.73255022 123.5 232.28515625 C124.38945313 231.20065186 124.38945313 231.20065186 125.296875 230.09423828 C127.71897007 227.11592241 130.08124354 224.09298248 132.4375 221.0625 C135.48680891 217.14195997 138.58676735 213.27297592 141.76171875 209.453125 C142.40246338 208.68218506 143.04320801 207.91124512 143.70336914 207.11694336 C144.96284115 205.60656903 146.22621884 204.09944111 147.49389648 202.59594727 C148.06567627 201.91072998 148.63745605 201.2255127 149.2265625 200.51953125 C149.73783691 199.91214111 150.24911133 199.30475098 150.77587891 198.67895508 C152.20099055 196.90266172 152.20099055 196.90266172 153 194 C152.37996094 194.23074219 151.75992187 194.46148437 151.12109375 194.69921875 C144.3188678 197.20425975 137.4719268 199.51708758 130.578125 201.75390625 C126.970303 202.96275206 126.970303 202.96275206 123.44140625 204.53125 C120.21463801 205.90839513 117.05350396 206.96081392 113.6875 207.9375 C108.75668361 209.41335215 104.04925036 211.14319216 99.30078125 213.1171875 C95.92491196 214.41251256 92.52682356 215.21626143 89 216 C89.93107871 206.92198256 95.02143321 198.95261583 99.07421875 190.93823242 C101.26407083 186.57333837 103.20315472 182.19471361 104.94140625 177.62890625 C106.34104839 174.1530422 107.91185925 170.76813104 109.5 167.375 C109.78496338 166.76519287 110.06992676 166.15538574 110.36352539 165.52709961 C112.50406911 160.98142313 114.74114622 156.48798579 117 152 C115.68902344 152.87398438 115.68902344 152.87398438 114.3515625 153.765625 C102.84765625 161.43489583 91.34375 169.10416667 79.83984375 176.7734375 C79.1852417 177.20994629 78.53063965 177.64645508 77.85620117 178.09619141 C76.59765139 178.93501108 75.33871263 179.77324749 74.0793457 180.61083984 C71.4235147 182.37799873 68.77481167 184.15381717 66.140625 185.953125 C65.33109375 186.50484375 64.5215625 187.0565625 63.6875 187.625 C62.67236328 188.32496094 62.67236328 188.32496094 61.63671875 189.0390625 C60 190 60 190 58 190 C58.82005037 182.48447954 59.63215192 175.04191795 61.4375 167.6875 C64.93861191 153.36476947 66.51272153 138.64531858 68 124 C63.80701547 128.07828282 59.83445025 132.2697255 56.015625 136.69921875 C53.55519731 139.5077302 51.03025008 142.25461879 48.5 145 C44.90714429 148.90152236 41.3682076 152.84016975 37.8984375 156.8515625 C34.87219394 160.27632373 31.75925483 163.62232091 28.64257812 166.96484375 C26.01782636 169.76290569 26.01782636 169.76290569 24 173 C23.34 173 22.68 173 22 173 C20.4721348 160.24070023 19.5105235 147.47167262 18.78564453 134.64428711 C18.19847397 124.71570829 17.17035816 114.87489695 16 105 C15.54786133 105.88445801 15.09572266 106.76891602 14.62988281 107.68017578 C-8.15158746 152.21384447 -8.15158746 152.21384447 -16 165 C-17.69022572 162.46466143 -18.55902705 160.70793654 -19.50878906 157.89013672 C-19.78958313 157.06432098 -20.0703772 156.23850525 -20.35968018 155.38766479 C-20.65864197 154.49403229 -20.95760376 153.60039978 -21.265625 152.6796875 C-21.58150574 151.74762482 -21.89738647 150.81556213 -22.22283936 149.85525513 C-23.23602989 146.86321677 -24.24325451 143.86921242 -25.25 140.875 C-26.56597681 136.9759763 -27.88432956 133.07775862 -29.203125 129.1796875 C-29.68320007 127.75870758 -29.68320007 127.75870758 -30.17297363 126.309021 C-33.0382762 117.84511367 -35.99685244 109.41586282 -39 101 C-42.50991365 114.11991543 -45.80800557 127.2603087 -48.765625 140.515625 C-50.74329222 149.36712588 -52.88103143 158.18148401 -55 167 C-55.66 167 -56.32 167 -57 167 C-58.58878835 164.67486935 -60.05669696 162.35127141 -61.5 159.9375 C-62.41225025 158.44550501 -63.32635426 156.95464208 -64.2421875 155.46484375 C-64.93779785 154.33151611 -64.93779785 154.33151611 -65.64746094 153.17529297 C-69.2715975 147.34658235 -73.17295554 141.69606618 -77 136 C-82.28 128.08 -87.56 120.16 -93 112 C-93 134.11 -93 156.22 -93 179 C-96.55713883 177.22143058 -98.11389431 176.08476818 -100.75 173.3125 C-103.3173901 170.67915859 -105.89971939 168.14878797 -108.6875 165.75 C-112.27953729 162.65705204 -115.77277244 159.4704681 -119.25 156.25 C-120.07902832 155.48272583 -120.07902832 155.48272583 -120.92480469 154.69995117 C-122.05370311 153.65478972 -123.18244574 152.60945996 -124.31103516 151.56396484 C-127.01596217 149.05922901 -129.72475985 146.55877071 -132.4375 144.0625 C-133.36433594 143.20785156 -134.29117188 142.35320312 -135.24609375 141.47265625 C-138.10767749 138.90331936 -141.03129564 136.4440438 -144 134 C-143.06778707 139.43382012 -141.85256061 144.67941386 -140.1875 149.9375 C-138.2617012 156.02046596 -136.60426293 162.14407101 -135.01000977 168.31982422 C-133.8229316 172.90657376 -132.59532867 177.47805514 -131.3125 182.0390625 C-131.03196777 183.04203369 -130.75143555 184.04500488 -130.46240234 185.07836914 C-129.91117049 187.04271519 -129.35434764 189.00550228 -128.79150391 190.96655273 C-128.54319824 191.85544189 -128.29489258 192.74433105 -128.0390625 193.66015625 C-127.81428223 194.45043213 -127.58950195 195.24070801 -127.35791016 196.05493164 C-127 198 -127 198 -128 200 C-148.18125563 189.66662874 -168.3417776 179.30876235 -188 168 C-184.05958555 175.26339251 -180.06635139 182.49387164 -176 189.6875 C-175.45255127 190.65776123 -174.90510254 191.62802246 -174.34106445 192.62768555 C-171.2831459 198.02927376 -168.18711133 203.40591661 -165.04296875 208.7578125 C-164.07713867 210.40197144 -164.07713867 210.40197144 -163.09179688 212.0793457 C-161.8380928 214.2079102 -160.58038047 216.33411976 -159.31835938 218.45776367 C-158.75310547 219.41658447 -158.18785156 220.37540527 -157.60546875 221.36328125 C-156.84979614 222.63619019 -156.84979614 222.63619019 -156.07885742 223.93481445 C-155 226 -155 226 -155 228 C-160.43106928 227.40835882 -165.62512271 226.47901774 -170.91796875 225.109375 C-171.64987427 224.92424347 -172.38177979 224.73911194 -173.13586426 224.54837036 C-174.68918533 224.15502487 -176.2419831 223.75960775 -177.79428101 223.36224365 C-181.01603889 222.53803959 -184.24071095 221.72554327 -187.46528625 220.91244507 C-189.84560232 220.31210193 -192.22554348 219.71028861 -194.60546875 219.10839844 C-200.29337738 217.67198652 -205.98607726 216.25685199 -211.6875 214.875 C-212.54045654 214.66327148 -213.39341309 214.45154297 -214.2722168 214.23339844 C-216.17108328 213.7766555 -218.08431524 213.38007885 -220 213 C-220.33 213.33 -220.66 213.66 -221 214 C-220.55200546 214.44577393 -220.10401093 214.89154785 -219.6424408 215.35083008 C-214.9506797 220.02034724 -210.26253799 224.69347618 -205.57641602 229.36865234 C-203.83058413 231.10947721 -202.08385302 232.84940078 -200.33618164 234.58837891 C-197.8141565 237.09817866 -195.29545804 239.61127717 -192.77734375 242.125 C-192.00414291 242.89303955 -191.23094208 243.6610791 -190.43431091 244.45239258 C-186.27166744 248.61461132 -182.29748067 252.8539298 -178.51564026 257.36669922 C-176.90023862 259.23449166 -176.90023862 259.23449166 -174 261 C-174 261.66 -174 262.32 -174 263 C-197.1 263 -220.2 263 -244 263 C-244 263.66 -244 264.32 -244 265 C-243.29875 265.26167969 -242.5975 265.52335937 -241.875 265.79296875 C-231.40168022 270.19005545 -221.67699691 276.98494086 -212.06958008 282.98706055 C-207.62386913 285.76436931 -203.16594153 288.50990375 -198.65234375 291.17578125 C-197.81541992 291.67360107 -196.97849609 292.1714209 -196.11621094 292.68432617 C-194.52705821 293.62698703 -192.93280606 294.56111668 -191.33300781 295.4855957 C-189.50440577 296.5758526 -187.74340682 297.77812513 -186 299 C-186 299.99 -186 300.98 -186 302 C-187.24652344 302.30292969 -188.49304688 302.60585938 -189.77734375 302.91796875 C-198.06930051 304.95159739 -206.32701766 307.02673995 -214.5 309.5 C-221.65889476 311.66557209 -228.87300345 313.52811623 -236.13867188 315.30078125 C-240.7923128 316.43673917 -245.4034425 317.65060845 -250 319 C-244.94990927 321.29308582 -239.98120022 322.95967681 -234.625 324.375 C-233.04656063 324.80222564 -231.46844376 325.23064427 -229.890625 325.66015625 C-229.08818359 325.87816895 -228.28574219 326.09618164 -227.45898438 326.32080078 C-223.41702616 327.43723523 -219.3957432 328.62227787 -215.375 329.8125 C-214.63459473 330.03147949 -213.89418945 330.25045898 -213.13134766 330.47607422 C-211.42055731 330.98289943 -209.71022276 331.49126285 -208 332 C-208 332.66 -208 333.32 -208 334 C-214.98335716 334.96837979 -221.96794534 335.92750309 -228.95336914 336.88085938 C-231.31855533 337.20468653 -233.68347576 337.53046207 -236.0480957 337.85839844 C-260.14256776 341.19731359 -283.6705217 343.33163731 -308.01391602 343.20581055 C-311.74957908 343.18719057 -315.48499781 343.18530415 -319.22070312 343.18554688 C-321.60937715 343.18064266 -323.99804951 343.17481919 -326.38671875 343.16796875 C-327.49697922 343.16685593 -328.60723969 343.1657431 -329.75114441 343.16459656 C-330.77774673 343.15821671 -331.80434906 343.15183685 -332.86206055 343.14526367 C-333.76087448 343.14145187 -334.65968842 343.13764008 -335.58573914 343.13371277 C-338 343 -338 343 -342 342 C-342 318.9 -342 295.8 -342 272 C-332.574375 270.7625 -323.14875 269.525 -313.4375 268.25 C-310.39805176 267.85063232 -307.35860352 267.45126465 -304.22705078 267.03979492 C-281.02191162 263.99272306 -281.02191162 263.99272306 -270.1171875 262.61328125 C-268.99586174 262.47099594 -268.99586174 262.47099594 -267.85188293 262.32583618 C-264.6035607 261.91399545 -261.35484722 261.50596022 -258.10522461 261.10449219 C-257.0250708 260.96817383 -255.94491699 260.83185547 -254.83203125 260.69140625 C-253.93202393 260.57998291 -253.0320166 260.46855957 -252.10473633 260.35375977 C-249.95063368 260.09730578 -249.95063368 260.09730578 -248 259 C-248.85980469 258.33355469 -249.71960938 257.66710937 -250.60546875 256.98046875 C-256.66643167 252.26177387 -262.6659716 247.49762798 -268.5 242.5 C-272.91573106 238.7180673 -277.4091491 235.0672837 -282 231.5 C-286.59086188 227.93270776 -291.08407795 224.2817169 -295.5 220.5 C-301.64535637 215.24046077 -307.97997826 210.24921436 -314.36181641 205.28125 C-318.27035797 202.22431615 -322.13321698 199.10946377 -326 196 C-322.27092957 194.75697652 -319.32171302 195.33046404 -315.52734375 195.890625 C-314.78088089 195.99490814 -314.03441803 196.09919128 -313.26533508 196.20663452 C-311.65902748 196.43152277 -310.05313657 196.65940342 -308.44763184 196.88995361 C-304.22106474 197.49620074 -299.9913071 198.07933122 -295.76171875 198.6640625 C-294.49788864 198.83952103 -294.49788864 198.83952103 -293.20852661 199.01852417 C-286.23267351 199.98172226 -279.24817424 200.83951857 -272.25 201.625 C-271.23091553 201.73996826 -270.21183105 201.85493652 -269.16186523 201.97338867 C-267.13989354 202.20060376 -265.1178403 202.42709442 -263.09570312 202.65283203 C-257.5619066 203.27342025 -252.03053325 203.91353391 -246.5 204.5625 C-245.49098633 204.6773877 -244.48197266 204.79227539 -243.44238281 204.91064453 C-237.22035091 205.64430579 -231.12279127 206.67132747 -225 208 C-230.21758092 200.30538571 -235.60689222 192.77934908 -241.20849609 185.3605957 C-245.13319807 180.16223771 -249.01528521 174.934283 -252.875 169.6875 C-253.45620605 168.89770752 -254.03741211 168.10791504 -254.63623047 167.29418945 C-256.4246275 164.86314107 -258.2123468 162.43159539 -260 160 C-262.43665322 156.68687608 -264.87434424 153.37451828 -267.3125 150.0625 C-267.89330322 149.27254639 -268.47410645 148.48259277 -269.07250977 147.66870117 C-271.64211213 144.17831545 -274.22012947 140.69611748 -276.84375 137.24609375 C-277.4773645 136.4116272 -277.4773645 136.4116272 -278.1237793 135.56030273 C-279.22061469 134.12060772 -280.32295015 132.68510738 -281.42578125 131.25 C-283 129 -283 129 -284 126 C-269.38787617 130.69675409 -255.18525363 136.48726749 -241 142.32275391 C-232.29334275 145.90022074 -223.55149767 149.34080966 -214.7265625 152.61621094 C-209.63932113 154.50526257 -204.56954519 156.43908155 -199.5 158.375 C-198.57058594 158.72949219 -197.64117187 159.08398438 -196.68359375 159.44921875 C-194.45557682 160.29908088 -192.22771112 161.14933668 -190 162 C-190.27972656 161.33097656 -190.55945313 160.66195312 -190.84765625 159.97265625 C-198.2187158 142.31529496 -205.40265235 124.58824734 -212.47851562 106.81054688 C-219.42703996 89.34441061 -219.42703996 89.34441061 -227.08203125 72.1796875 C-228 70 -228 70 -228 68 C-225.06343934 69.37592275 -222.5415385 70.96685637 -219.9453125 72.90625 C-218.78696899 73.76682007 -218.78696899 73.76682007 -217.60522461 74.64477539 C-216.37751343 75.56311157 -216.37751343 75.56311157 -215.125 76.5 C-213.40032413 77.78073546 -211.67506012 79.06067928 -209.94921875 80.33984375 C-208.67957275 81.28126221 -208.67957275 81.28126221 -207.38427734 82.24169922 C-204.2577853 84.54735104 -201.10480707 86.81338254 -197.9375 89.0625 C-192.69206749 92.79024584 -187.46527713 96.54265548 -182.25 100.3125 C-181.49775146 100.85608154 -180.74550293 101.39966309 -179.97045898 101.9597168 C-176.04679172 104.79567599 -172.12459452 107.63365909 -168.203125 110.47265625 C-160.50878215 116.04032644 -152.81406845 121.6008321 -145 127 C-145.19335938 125.87464844 -145.38671875 124.74929687 -145.5859375 123.58984375 C-145.8490964 122.03908592 -146.11210914 120.48830329 -146.375 118.9375 C-146.50132812 118.20466797 -146.62765625 117.47183594 -146.7578125 116.71679688 C-147.57963647 111.84748984 -148.28506476 106.97041586 -148.93164062 102.07470703 C-149.10906551 100.73479524 -149.28650526 99.39488542 -149.46395874 98.05497742 C-149.55336102 97.37820639 -149.64276329 96.70143536 -149.73487473 96.00415611 C-150.14110741 92.9333296 -150.55148661 89.86305822 -150.96142578 86.79272461 C-151.74201246 80.93513124 -152.51905383 75.07707638 -153.2934742 69.21866512 C-153.75751806 65.70905197 -154.22307625 62.19965267 -154.69189453 58.69067383 C-155.15148765 55.25032512 -155.60726828 51.80949076 -156.06042099 48.36828804 C-156.31485085 46.4436583 -156.5731697 44.51954395 -156.83157349 42.59544373 C-156.98528412 41.42304642 -157.13899475 40.25064911 -157.29736328 39.04272461 C-157.50149338 37.50508705 -157.50149338 37.50508705 -157.70974731 35.93638611 C-158.00615724 32.93770938 -158.05042753 30.01123162 -158 27 C-154.19609481 30.70672513 -150.68814618 34.57870831 -147.25 38.625 C-146.72414307 39.24109131 -146.19828613 39.85718262 -145.65649414 40.49194336 C-141.8030572 45.0203323 -138.02560313 49.60680699 -134.27734375 54.22265625 C-131.71795946 57.34396367 -129.11406209 60.4245003 -126.5 63.5 C-122.38128891 68.34675531 -118.33399069 73.24530894 -114.3203125 78.1796875 C-111.24570568 81.91683586 -108.10514662 85.59615967 -104.96508789 89.27832031 C-101.62159761 93.21714536 -98.43078795 97.24921321 -95.33984375 101.390625 C-94.07372465 103.13032784 -94.07372465 103.13032784 -92 104 C-92.01441132 103.41865799 -92.02882263 102.83731598 -92.04367065 102.23835754 C-92.13767463 95.37121067 -91.5561091 88.70215423 -90.7578125 81.88671875 C-90.56516312 80.18960503 -90.56516312 80.18960503 -90.36862183 78.45820618 C-90.09719228 76.07705863 -89.82307013 73.69621661 -89.54638672 71.31567383 C-89.12751853 67.70918473 -88.71734092 64.10178936 -88.30859375 60.49414062 C-88.04217957 58.1666079 -87.77526856 55.83913198 -87.5078125 53.51171875 C-87.3868924 52.4508757 -87.26597229 51.39003265 -87.14138794 50.29704285 C-86.38248075 43.79530476 -85.47039084 37.33179372 -84.44285583 30.86698914 C-83.83985075 26.96321526 -83.37157606 23.05055745 -82.9375 19.125 C-82.36904662 14.06999307 -81.74236483 9.03231382 -81 4 C-78.73908956 6.06710677 -77.42653504 7.85116912 -76.23828125 10.66796875 C-75.92310547 11.39822266 -75.60792969 12.12847656 -75.28320312 12.88085938 C-74.96287109 13.64205078 -74.64253906 14.40324219 -74.3125 15.1875 C-71.84766698 21.00915059 -69.18394416 26.69963083 -66.3359375 32.34375 C-61.93704291 41.06178873 -57.73307109 49.86773122 -53.5534668 58.69262695 C-52.30519338 61.32792541 -51.05415221 63.96189661 -49.80273438 66.59570312 C-46.48356899 73.58738481 -43.16949429 80.58203633 -39.91796875 87.60546875 C-39.53793701 88.4255542 -39.15790527 89.24563965 -38.76635742 90.09057617 C-38 92 -38 92 -38 94 C-35.88696374 93.20492104 -35.88696374 93.20492104 -35.25236511 91.36494446 C-35.01850601 90.65839218 -34.78464691 89.9518399 -34.54370117 89.22387695 C-34.27407059 88.42700974 -34.00444 87.63014252 -33.72663879 86.80912781 C-33.43915268 85.94012344 -33.15166656 85.07111908 -32.85546875 84.17578125 C-30.45297903 77.11554933 -27.95710842 70.11284334 -25.23828125 63.16796875 C-24.76254921 61.95272018 -24.76254921 61.95272018 -24.27720642 60.71292114 C-23.29158416 58.20341051 -22.30214105 55.69542815 -21.3125 53.1875 C-20.26274529 50.51612704 -19.21419161 47.8442848 -18.16575623 45.1723938 C-17.46415299 43.38453231 -16.76213989 41.5968316 -16.05970764 39.80929565 C-13.79540981 34.04340786 -11.55258403 28.26964953 -9.328125 22.48828125 C-9.04668137 21.75739792 -8.76523773 21.02651459 -8.4752655 20.27348328 C-7.41151166 17.50998147 -6.34814521 14.74634583 -5.28970337 11.98080444 C-4.58208554 10.13218068 -3.87121743 8.28480203 -3.16015625 6.4375 C-2.76449463 5.40496094 -2.36883301 4.37242188 -1.96118164 3.30859375 C-1 1 -1 1 0 0 Z " fill="#ECE2C6" transform="translate(437,82)"/>
<path d="M0 0 C4.67964337 0.52148519 9.35509676 1.07282629 14.02929688 1.640625 C16.12394099 1.89402047 18.21903993 2.14367 20.31445312 2.390625 C101.46442881 12.04814277 101.46442881 12.04814277 122.46875 37.80078125 C125.5336828 42.21209525 126.17569251 45.90547569 126.25 51.1875 C126.27578125 52.27417969 126.3015625 53.36085938 126.328125 54.48046875 C125.56945239 62.61813565 122.34976451 67.42241179 116.5 72.9375 C115.87561035 73.54303711 115.2512207 74.14857422 114.60791016 74.77246094 C110.15171989 79.04321362 105.52434834 83.05232631 100.6796875 86.87890625 C97.89356702 89.08424651 95.20118244 91.3791488 92.5 93.6875 C67.94781752 114.14765207 39.63380718 133.68309641 11 148 C12.2358081 144.05515442 13.72300846 140.31779481 15.41137695 136.54638672 C18.67159298 129.14266667 21.0297924 121.7664157 22.8125 113.875 C23.00690674 113.01841797 23.20131348 112.16183594 23.40161133 111.27929688 C26.09867001 98.65587671 27.33803115 86.24809325 27.26074219 73.37353516 C27.24993434 71.23702101 27.26076382 69.1013342 27.2734375 66.96484375 C27.29993472 43.26556287 18.83725779 24.21060845 4 6 C3.25105469 5.2678125 2.50210938 4.535625 1.73046875 3.78125 C0 2 0 2 0 0 Z " fill="#5C151B" transform="translate(540,651)"/>
<path d="M0 0 C10 3.33333333 10 3.33333333 14.8828125 5.9375 C17.1311788 7.06583143 19.43024031 8.03207592 21.74560547 9.01318359 C26.40103763 11.05100651 30.98380444 13.25020349 35.58270264 15.4118042 C51.9777552 23.11376806 68.47300855 30.58618166 85 38 C85 38.66 85 39.32 85 40 C77.33358386 43.30886932 69.64937374 46.57076212 61.9402914 49.77878571 C58.35874513 51.27079245 54.78457462 52.77654301 51.22436523 54.31884766 C47.7700851 55.8145745 44.3002639 57.26746841 40.81746101 58.69544983 C39.51022941 59.23933066 38.20858271 59.79690278 36.91393852 60.37010193 C23.91397892 66.10373314 15.43827369 65 0 65 C0 43.55 0 22.1 0 0 Z " fill="#D0BB7F" transform="translate(95,359)"/>
</svg>
